<svg version="1.1" xmlns="http://www.w3.org/2000/svg" width="254px" height="254px" transform="rotate(0) scale(1, 1)">
<path d="M0 0 C5.52996007 2.76498003 9.5126481 6.79394479 14 11 C14.80179688 11.74765625 15.60359375 12.4953125 16.4296875 13.265625 C17.51636719 14.30976562 17.51636719 14.30976562 18.625 15.375 C19.27726563 16.00148438 19.92953125 16.62796875 20.6015625 17.2734375 C22 19 22 19 22 22 C20.22753906 23.56225586 20.22753906 23.56225586 17.765625 25.21484375 C16.88132813 25.81876953 15.99703125 26.42269531 15.0859375 27.04492188 C13.68214844 27.98174805 13.68214844 27.98174805 12.25 28.9375 C10.41934523 30.1720382 8.59113157 31.41020558 6.765625 32.65234375 C5.94868164 33.19882568 5.13173828 33.74530762 4.29003906 34.30834961 C1.92615878 35.96192587 1.92615878 35.96192587 -0.12597656 38.16235352 C-2.37034945 40.36316054 -3.92462873 40.65829208 -7 41 C-7 38.36 -7 35.72 -7 33 C-14.88364482 32.92393645 -22.767195 32.87139423 -30.65112305 32.83520508 C-33.33319554 32.82181298 -36.01505492 32.80093923 -38.69702148 32.77368164 C-42.55198251 32.73729389 -46.40661733 32.720272 -50.26171875 32.70703125 C-51.46084396 32.69154739 -52.65996918 32.67606354 -53.89543152 32.66011047 C-55.01621597 32.65988388 -56.13700043 32.65965729 -57.29174805 32.65942383 C-58.27547897 32.65276199 -59.2592099 32.64610016 -60.27275085 32.63923645 C-64.15685545 33.15303013 -66.94660431 34.65931458 -69.375 37.75 C-70.27816014 41.00137649 -69.62916416 43.72834637 -69 47 C-65.47954808 48.58921695 -62.73287951 49.24979778 -58.87768555 49.25537109 C-57.3853968 49.26580948 -57.3853968 49.26580948 -55.86296082 49.27645874 C-54.79830093 49.27546173 -53.73364105 49.27446472 -52.63671875 49.2734375 C-50.36522947 49.29372872 -48.09374513 49.31457955 -45.82226562 49.3359375 C-42.25427065 49.35851509 -38.68647128 49.37500169 -35.1184082 49.38085938 C-31.66582183 49.39040944 -28.21410845 49.42421946 -24.76171875 49.4609375 C-23.70313156 49.45589203 -22.64454437 49.45084656 -21.55387878 49.44564819 C-14.93188245 49.53309994 -10.69135931 50.57233172 -5 54 C-5 54.66 -5 55.32 -5 56 C-4.34 56 -3.68 56 -3 56 C-3 56.66 -3 57.32 -3 58 C-2.34 58 -1.68 58 -1 58 C-0.3490741 59.24735567 0.29551669 60.49801832 0.9375 61.75 C1.29714844 62.44609375 1.65679687 63.1421875 2.02734375 63.859375 C5.24275878 70.93587074 4.48259114 78.15576699 2.09375 85.35546875 C-1.96689331 95.17352418 -8.4480753 103.83495013 -18.45837021 108.0303154 C-26.27211895 110.86242551 -33.11892475 111.55472239 -41.38769531 111.45410156 C-42.66716537 111.45468567 -43.94663544 111.45526978 -45.26487732 111.45587158 C-48.73329668 111.45700736 -52.20114935 111.43368571 -55.66943836 111.40557575 C-59.30887195 111.38036956 -62.94832217 111.37820511 -66.58782959 111.37347412 C-73.4617929 111.36110025 -80.33549816 111.32835547 -87.20934844 111.28807616 C-95.04257288 111.24318309 -102.87581041 111.22132759 -110.70913172 111.20129442 C-126.80623825 111.15961694 -142.90308606 111.08937526 -159 111 C-159 107.44584888 -158.09031123 105.96256021 -156.375 102.875 C-155.88773437 101.98554688 -155.40046875 101.09609375 -154.8984375 100.1796875 C-154.27195312 99.13039063 -153.64546875 98.08109375 -153 97 C-152.63816116 96.26020842 -152.27632233 95.52041683 -151.90351868 94.75820732 C-148.48094412 88.50620781 -148.48094412 88.50620781 -144.5859375 87.17483902 C-141.55187226 86.87118558 -138.63050677 86.85528287 -135.58203125 86.93408203 C-134.43987152 86.9278331 -133.29771179 86.92158417 -132.12094116 86.91514587 C-128.35016373 86.90443802 -124.5828989 86.95646807 -120.8125 87.0078125 C-118.18985969 87.00977724 -115.56721271 87.00734499 -112.94458008 87.0007019 C-106.74661096 86.99115994 -100.54972605 87.02473174 -94.3519907 87.07607162 C-82.59920325 87.17195376 -70.84622692 87.18239538 -59.09310913 87.18636703 C-55.23407351 87.19520583 -51.37572389 87.2266519 -47.5168457 87.26150513 C-45.15055536 87.27134126 -42.78426304 87.28071471 -40.41796875 87.28955078 C-39.34557953 87.30512527 -38.27319031 87.32069977 -37.16830444 87.33674622 C-31.71758269 87.33931817 -27.64205605 87.21370851 -23 84 C-20.70986347 80.5647952 -20.82157027 79.014669 -21 75 C-24.12165604 73.17936771 -26.38007992 72.75320692 -29.97705078 72.76049805 C-30.96553009 72.75676682 -31.9540094 72.75303558 -32.97244263 72.74919128 C-34.03598969 72.75332535 -35.09953674 72.75745941 -36.1953125 72.76171875 C-38.46094344 72.74629201 -40.72656855 72.72998786 -42.9921875 72.71289062 C-46.55351666 72.6964801 -50.11441762 72.6874789 -53.67578125 72.69458008 C-57.12027941 72.69721422 -60.56348739 72.6689691 -64.0078125 72.63671875 C-65.05921417 72.64692551 -66.11061584 72.65713226 -67.19387817 72.66764832 C-75.50859397 72.55880085 -82.16112542 70.42668772 -88.4375 64.82421875 C-93.54294051 57.84252885 -95.74855523 51.83295175 -95 43 C-93.55732063 35.59499731 -90.98873015 29.38512138 -87 23 C-86.34 23 -85.68 23 -85 23 C-85 22.34 -85 21.68 -85 21 C-84.34 21 -83.68 21 -83 21 C-83 20.34 -83 19.68 -83 19 C-74.86357323 12.37646891 -66.32719166 8.86474702 -55.83276367 8.88647461 C-54.61187546 8.88655014 -53.39098724 8.88662567 -52.13310242 8.88670349 C-50.82460831 8.89186478 -49.5161142 8.89702606 -48.16796875 8.90234375 C-46.80748039 8.90421039 -45.44699135 8.90563313 -44.08650208 8.90663147 C-40.51744713 8.91043725 -36.94843331 8.92025086 -33.37939453 8.93133545 C-29.73275305 8.94159137 -26.08610489 8.94613803 -22.43945312 8.95117188 C-15.29295199 8.96187497 -8.14647869 8.97892796 -1 9 C-0.67 6.03 -0.34 3.06 0 0 Z " fill="#159fbb" transform="translate(226,55)"/>
<path d="M0 0 C2.20388685 0.03982928 4.40738085 0.11131131 6.609375 0.2109375 C8.29933594 0.25154297 8.29933594 0.25154297 10.0234375 0.29296875 C12.80401737 0.36366146 15.58072859 0.4622871 18.359375 0.5859375 C35.359375 59.43209135 35.359375 59.43209135 35.359375 70.5859375 C26.779375 70.5859375 18.199375 70.5859375 9.359375 70.5859375 C7.21828757 64.16267521 5.30963502 57.93463384 3.671875 51.3984375 C3.33446289 50.10389648 3.33446289 50.10389648 2.99023438 48.78320312 C1.85743334 44.28298745 1.07586733 40.26764523 1.359375 35.5859375 C-1.10310969 36.81717985 -1.34092893 37.658232 -2.578125 40.0859375 C-5.15548494 44.87355567 -8.04885652 49.4094573 -11.015625 53.9609375 C-11.73890991 55.07178711 -11.73890991 55.07178711 -12.47680664 56.20507812 C-13.42792907 57.66414075 -14.37965462 59.12281041 -15.33203125 60.58105469 C-19.54972531 67.04293968 -23.64598578 73.49743717 -27.33203125 80.27734375 C-29.37925646 83.88901568 -31.64717575 87.35430769 -33.89453125 90.84375 C-35.48235787 93.33738375 -37.01013964 95.85454257 -38.515625 98.3984375 C-40.98063605 102.54864377 -43.57404808 106.60146178 -46.203125 110.6484375 C-49.20829467 115.27820877 -52.06915326 119.94479154 -54.66796875 124.81640625 C-55.57035602 126.45809875 -56.60147489 128.02721234 -57.640625 129.5859375 C-60.25439453 129.92651367 -60.25439453 129.92651367 -63.5234375 129.87890625 C-64.69003906 129.86923828 -65.85664062 129.85957031 -67.05859375 129.84960938 C-68.28191406 129.82447266 -69.50523438 129.79933594 -70.765625 129.7734375 C-71.99667969 129.75990234 -73.22773437 129.74636719 -74.49609375 129.73242188 C-77.54470343 129.69697293 -80.59245 129.64755829 -83.640625 129.5859375 C-82.82759283 125.98768532 -81.47383848 123.33099066 -79.578125 120.1484375 C-78.9490625 119.09140625 -78.32 118.034375 -77.671875 116.9453125 C-68.64508929 102.01639766 -68.64508929 102.01639766 -64.453125 95.8359375 C-62.58055156 93.06962048 -60.87505184 90.27903501 -59.28125 87.34375 C-56.82922606 82.89099487 -54.24025268 78.54064913 -51.578125 74.2109375 C-51.11349854 73.45216309 -50.64887207 72.69338867 -50.17016602 71.91162109 C-46.02197361 65.15881395 -41.79142156 58.45854121 -37.52514648 51.77978516 C-37.04634033 51.02745605 -36.56753418 50.27512695 -36.07421875 49.5 C-35.44084595 48.5092749 -35.44084595 48.5092749 -34.79467773 47.49853516 C-33.63217988 45.57194151 -32.6189709 43.61136423 -31.640625 41.5859375 C-30.980625 41.5859375 -30.320625 41.5859375 -29.640625 41.5859375 C-29.5267041 41.01625244 -29.4127832 40.44656738 -29.29541016 39.85961914 C-28.5688672 37.33676509 -27.52461983 35.45066821 -26.1640625 33.20703125 C-25.66132812 32.37316895 -25.15859375 31.53930664 -24.640625 30.68017578 C-24.104375 29.80345215 -23.568125 28.92672852 -23.015625 28.0234375 C-22.47164062 27.12608887 -21.92765625 26.22874023 -21.3671875 25.30419922 C-17.54173403 19.01155597 -13.67718938 12.74590293 -9.640625 6.5859375 C-9.17140625 5.50828125 -8.7021875 4.430625 -8.21875 3.3203125 C-5.14083392 0.05585605 -4.33375863 0.15359634 0 0 Z " fill="#159fbb" transform="translate(89.640625,63.4140625)"/>
<path d="M0 0 C7.41807903 0.37719046 11.01039248 3.34658875 16.0625 8.4375 C16.64668701 9.02362061 17.23087402 9.60974121 17.83276367 10.21362305 C22 14.58435104 22 14.58435104 22 18 C20.21166992 19.59399414 20.21166992 19.59399414 17.73046875 21.28515625 C16.84166016 21.89810547 15.95285156 22.51105469 15.03710938 23.14257812 C14.09673828 23.77615234 13.15636719 24.40972656 12.1875 25.0625 C11.25873047 25.69994141 10.32996094 26.33738281 9.37304688 26.99414062 C-0.85152134 34 -0.85152134 34 -4 34 C-4.66 32.02 -5.32 30.04 -6 28 C-23.82 27.67 -41.64 27.34 -60 27 C-59.34 25.68 -58.68 24.36 -58 23 C-56.68 23 -55.36 23 -54 23 C-54 22.34 -54 21.68 -54 21 C-53.01 20.34 -52.02 19.68 -51 19 C-50.71125 18.195625 -50.4225 17.39125 -50.125 16.5625 C-48.69578944 13.30707596 -46.98961869 12.79377121 -44 11 C-42.8273277 8.46472687 -42.8273277 8.46472687 -42 6 C-36.50074579 5.95059071 -31.00162058 5.91427605 -25.50219727 5.89013672 C-23.63108062 5.88007433 -21.75997972 5.86642309 -19.88891602 5.84912109 C-17.20064409 5.82488316 -14.51257994 5.81351937 -11.82421875 5.8046875 C-10.98662521 5.79436493 -10.14903168 5.78404236 -9.28605652 5.77340698 C-3.34161512 5.77225659 -3.34161512 5.77225659 0 8 C0 5.36 0 2.72 0 0 Z " fill="#159fbb" transform="translate(226,59)"/>
<path d="M0 0 C28.71 0 57.42 0 87 0 C86.01 0.99 85.02 1.98 84 3 C83.34 3 82.68 3 82 3 C81.731875 3.639375 81.46375 4.27875 81.1875 4.9375 C80 7 80 7 77 8 C76.67 8.99 76.34 9.98 76 11 C75.01 11.66 74.02 12.32 73 13 C72.67 13.99 72.34 14.98 72 16 C68.92162206 17.02612598 66.83425704 17.12090219 63.6105957 17.11352539 C62.50968094 17.11344986 61.40876617 17.11337433 60.27449036 17.11329651 C59.08691635 17.10813522 57.89934235 17.10297394 56.67578125 17.09765625 C55.45924362 17.0962413 54.24270599 17.09482635 52.98930359 17.09336853 C49.0970109 17.08776312 45.20477536 17.07520967 41.3125 17.0625 C38.67643312 17.0574857 36.04036534 17.05292267 33.40429688 17.04882812 C26.93617836 17.03779193 20.46809326 17.0210485 14 17 C14.33 15.68 14.66 14.36 15 13 C15.66 13 16.32 13 17 13 C17 12.34 17 11.68 17 11 C16.34 11 15.68 11 15 11 C15 10.34 15 9.68 15 9 C14.34 9 13.68 9 13 9 C12.34 10.32 11.68 11.64 11 13 C10.34 13 9.68 13 9 13 C8.67 13.99 8.34 14.98 8 16 C5.11584117 17.44207941 2.58278472 17.09394887 -0.625 17.0625 C-1.81351562 17.05347656 -3.00203125 17.04445312 -4.2265625 17.03515625 C-5.14179687 17.02355469 -6.05703125 17.01195312 -7 17 C-6.484375 16.21625 -5.96875 15.4325 -5.4375 14.625 C-4.963125 13.75875 -4.48875 12.8925 -4 12 C-4.33 11.34 -4.66 10.68 -5 10 C-4.525625 9.608125 -4.05125 9.21625 -3.5625 8.8125 C-1.63571044 6.57742411 -1.4429629 4.87925887 -1 2 C-0.67 1.34 -0.34 0.68 0 0 Z " fill="#159fbb" transform="translate(77,146)"/>
<path d="M0 0 C0.99 0.495 0.99 0.495 2 1 C1.01 1.33 0.02 1.66 -1 2 C-1.33 2.99 -1.66 3.98 -2 5 C-11.57 5 -21.14 5 -31 5 C-31 5.66 -31 6.32 -31 7 C-31.804375 7.474375 -32.60875 7.94875 -33.4375 8.4375 C-36.2918076 9.79983672 -36.2918076 9.79983672 -37 13 C-37.66 13 -38.32 13 -39 13 C-39.33 13.99 -39.66 14.98 -40 16 C-40.66 16 -41.32 16 -42 16 C-42.66 17.32 -43.32 18.64 -44 20 C-44.99 20 -45.98 20 -47 20 C-47 20.66 -47 21.32 -47 22 C-40.80696911 22.0247204 -34.61396695 22.04286973 -28.42089844 22.05493164 C-26.31412251 22.05996013 -24.20735008 22.06678376 -22.10058594 22.07543945 C-19.07225686 22.08756989 -16.04397394 22.09324317 -13.015625 22.09765625 C-12.07382385 22.10281754 -11.13202271 22.10797882 -10.16168213 22.11329651 C-8.84076569 22.11340981 -8.84076569 22.11340981 -7.49316406 22.11352539 C-6.72039124 22.115746 -5.94761841 22.11796661 -5.15142822 22.12025452 C-1.78729905 21.93221583 0.92476127 21.0291742 4.0625 19.8125 C5.031875 19.544375 6.00125 19.27625 7 19 C7.99 19.66 8.98 20.32 10 21 C1.35286807 24.44801528 -6.11942041 25.56688514 -15.38769531 25.45410156 C-16.66716537 25.45468567 -17.94663544 25.45526978 -19.26487732 25.45587158 C-22.73329668 25.45700736 -26.20114935 25.43368571 -29.66943836 25.40557575 C-33.30887195 25.38036956 -36.94832217 25.37820511 -40.58782959 25.37347412 C-47.4617929 25.36110025 -54.33549816 25.32835547 -61.20934844 25.28807616 C-69.04257288 25.24318309 -76.87581041 25.22132759 -84.70913172 25.20129442 C-100.80623825 25.15961694 -116.90308606 25.08937526 -133 25 C-133 21.32785552 -131.90169908 19.62960767 -130.125 16.4375 C-129.59132813 15.46683594 -129.05765625 14.49617187 -128.5078125 13.49609375 C-127 11 -127 11 -125 9 C-124.34765625 10.734375 -124.34765625 10.734375 -124 13 C-124.99609375 15.140625 -124.99609375 15.140625 -126.4375 17.25 C-126.91058594 17.95640625 -127.38367188 18.6628125 -127.87109375 19.390625 C-128.24363281 19.92171875 -128.61617188 20.4528125 -129 21 C-120.64088742 21.8998566 -120.64088742 21.8998566 -113.3125 18.625 C-111.01439825 16.24185729 -111.01439825 16.24185729 -110 14 C-109.34 14 -108.68 14 -108 14 C-108 14.66 -108 15.32 -108 16 C-107.34 16 -106.68 16 -106 16 C-106 16.66 -106 17.32 -106 18 C-106.66 18 -107.32 18 -108 18 C-108 18.99 -108 19.98 -108 21 C-89.19 21 -70.38 21 -51 21 C-50.67 19.68 -50.34 18.36 -50 17 C-48.29296875 15.21875 -48.29296875 15.21875 -46.1875 13.5 C-43.26942527 11.09108278 -40.70029098 8.70029098 -38 6 C-65.72 5.67 -93.44 5.34 -122 5 C-121.67 4.01 -121.34 3.02 -121 2 C-120.09193745 1.99365209 -120.09193745 1.99365209 -119.1655302 1.98717594 C-104.44349914 1.88392472 -89.72151459 1.77529524 -74.99956799 1.66066074 C-67.88018117 1.60535469 -60.76078933 1.55187699 -53.64135742 1.50268555 C-46.7749026 1.45523693 -39.90850166 1.40271695 -33.04210854 1.34705925 C-30.41818821 1.32662786 -27.79425393 1.3079161 -25.17030907 1.29092598 C-21.50435704 1.26689945 -17.83850159 1.23684229 -14.17260742 1.20532227 C-13.0800061 1.1995668 -11.98740479 1.19381134 -10.86169434 1.18788147 C-9.86470016 1.17809265 -8.86770599 1.16830383 -7.84049988 1.15821838 C-6.97309268 1.15176583 -6.10568548 1.14531328 -5.21199322 1.1386652 C-2.82441964 1.08383643 -2.82441964 1.08383643 0 0 Z " fill="#159fbb" transform="translate(200,141)"/>
<path d="M0 0 C8.25 0 16.5 0 25 0 C28 8 28 8 30 19 C21.09 19 12.18 19 3 19 C2.319375 16.6075 1.63875 14.215 0.9375 11.75 C0.61060181 10.62996582 0.61060181 10.62996582 0.27709961 9.48730469 C-0.76999455 5.68359576 -0.98088135 3.9235254 0 0 Z " fill="#159fbb" transform="translate(110,174)"/>
<path d="M0 0 C0.99 0.495 0.99 0.495 2 1 C1.01 1.33 0.02 1.66 -1 2 C-1.33 2.99 -1.66 3.98 -2 5 C-11.57 5 -21.14 5 -31 5 C-31 5.66 -31 6.32 -31 7 C-31.804375 7.474375 -32.60875 7.94875 -33.4375 8.4375 C-36.2918076 9.79983672 -36.2918076 9.79983672 -37 13 C-37.66 13 -38.32 13 -39 13 C-39.33 13.99 -39.66 14.98 -40 16 C-40.66 16 -41.32 16 -42 16 C-42.66 17.32 -43.32 18.64 -44 20 C-44.99 20 -45.98 20 -47 20 C-47 20.66 -47 21.32 -47 22 C-49.31 22 -51.62 22 -54 22 C-53.01 21.67 -52.02 21.34 -51 21 C-50.77763672 20.08734375 -50.77763672 20.08734375 -50.55078125 19.15625 C-49.81464849 16.27436857 -48.46947615 15.36283767 -46.1875 13.5 C-43.26942527 11.09108278 -40.70029098 8.70029098 -38 6 C-65.72 5.67 -93.44 5.34 -122 5 C-121.67 4.01 -121.34 3.02 -121 2 C-120.09193745 1.99365209 -120.09193745 1.99365209 -119.1655302 1.98717594 C-104.44349914 1.88392472 -89.72151459 1.77529524 -74.99956799 1.66066074 C-67.88018117 1.60535469 -60.76078933 1.55187699 -53.64135742 1.50268555 C-46.7749026 1.45523693 -39.90850166 1.40271695 -33.04210854 1.34705925 C-30.41818821 1.32662786 -27.79425393 1.3079161 -25.17030907 1.29092598 C-21.50435704 1.26689945 -17.83850159 1.23684229 -14.17260742 1.20532227 C-13.0800061 1.1995668 -11.98740479 1.19381134 -10.86169434 1.18788147 C-9.86470016 1.17809265 -8.86770599 1.16830383 -7.84049988 1.15821838 C-6.97309268 1.15176583 -6.10568548 1.14531328 -5.21199322 1.1386652 C-2.82441964 1.08383643 -2.82441964 1.08383643 0 0 Z " fill="#159fbb" transform="translate(200,141)"/>
<path d="M0 0 C3.56311466 1.78155733 5.35645475 3.16763009 8 6 C5.36 5.34 2.72 4.68 0 4 C0.185625 4.94875 0.37125 5.8975 0.5625 6.875 C1 10 1 10 0 12 C-9.57 12 -19.14 12 -29 12 C-29 11.67 -29 11.34 -29 11 C-33.29 10.67 -37.58 10.34 -42 10 C-42.33 11.65 -42.66 13.3 -43 15 C-44.94220597 17.47189851 -45.93738507 17.97912836 -49 19 C-49.33 19.825 -49.66 20.65 -50 21.5 C-50.33 22.325 -50.66 23.15 -51 24 C-51.99 24.33 -52.98 24.66 -54 25 C-54 25.66 -54 26.32 -54 27 C-55.32 27.99 -56.64 28.98 -58 30 C-40.84 30.33 -23.68 30.66 -6 31 C-5.34 33.31 -4.68 35.62 -4 38 C-3.34 38 -2.68 38 -2 38 C-2 38.66 -2 39.32 -2 40 C-3.65 40.33 -5.3 40.66 -7 41 C-7 38.36 -7 35.72 -7 33 C-14.24967398 32.9768334 -21.49933997 32.95906286 -28.74904346 32.94818783 C-32.1153424 32.94296846 -35.48161602 32.93588797 -38.84790039 32.92456055 C-42.71761755 32.91246101 -46.58729866 32.90676396 -50.45703125 32.90234375 C-51.66647903 32.89718246 -52.87592682 32.89202118 -54.12202454 32.88670349 C-55.24296005 32.88662796 -56.36389557 32.88655243 -57.51879883 32.88647461 C-58.50697098 32.884254 -59.49514313 32.88203339 -60.51325989 32.87974548 C-63.13278349 32.89424144 -63.13278349 32.89424144 -66 34 C-66 32.68 -66 31.36 -66 30 C-65.34 30 -64.68 30 -64 30 C-64 29.34 -64 28.68 -64 28 C-62.64453125 26.66796875 -62.64453125 26.66796875 -60.8125 25.1875 C-57.69784884 22.60660962 -54.82451082 19.90084895 -52 17 C-50.66788044 15.66545399 -49.33473758 14.33192761 -48 13 C-50.14526099 12.80606125 -52.29123677 12.62001324 -54.4375 12.4375 C-55.63246094 12.33308594 -56.82742187 12.22867188 -58.05859375 12.12109375 C-59.51458984 12.06115234 -59.51458984 12.06115234 -61 12 C-61.33 12.33 -61.66 12.66 -62 13 C-63.51928038 13.07179964 -65.04167482 13.08392007 -66.5625 13.0625 C-67.38878906 13.05347656 -68.21507812 13.04445313 -69.06640625 13.03515625 C-69.70449219 13.02355469 -70.34257812 13.01195313 -71 13 C-71.33 13.66 -71.66 14.32 -72 15 C-72.66 14.34 -73.32 13.68 -74 13 C-67.7753045 10.19278438 -62.73846153 8.8721771 -55.83276367 8.88647461 C-54.61187546 8.88655014 -53.39098724 8.88662567 -52.13310242 8.88670349 C-50.82460831 8.89186478 -49.5161142 8.89702606 -48.16796875 8.90234375 C-46.80748039 8.90421039 -45.44699135 8.90563313 -44.08650208 8.90663147 C-40.51744713 8.91043725 -36.94843331 8.92025086 -33.37939453 8.93133545 C-29.73275305 8.94159137 -26.08610489 8.94613803 -22.43945312 8.95117188 C-15.29295199 8.96187497 -8.14647869 8.97892796 -1 9 C-0.67 6.03 -0.34 3.06 0 0 Z " fill="#159fbb" transform="translate(226,55)"/>
<path d="M0 0 C16.83 0 33.66 0 51 0 C51 0.33 51 0.66 51 1 C49.35 1 47.7 1 46 1 C45.896875 1.639375 45.79375 2.27875 45.6875 2.9375 C45.460625 3.618125 45.23375 4.29875 45 5 C44.01 5.33 43.02 5.66 42 6 C41.67 6.99 41.34 7.98 41 9 C40.34 9 39.68 9 39 9 C39 9.66 39 10.32 39 11 C38.01 11 37.02 11 36 11 C36 11.99 36 12.98 36 14 C33 15 33 15 30 15 C29.67 14.01 29.34 13.02 29 12 C29.49371094 11.59007813 29.98742187 11.18015625 30.49609375 10.7578125 C31.45708984 9.94957031 31.45708984 9.94957031 32.4375 9.125 C33.39462891 8.32449219 33.39462891 8.32449219 34.37109375 7.5078125 C36.10805004 6.0777243 36.10805004 6.0777243 37 4 C37.66 4 38.32 4 39 4 C39 3.34 39 2.68 39 2 C26.46 2 13.92 2 1 2 C0.67 1.34 0.34 0.68 0 0 Z " fill="#159fbb" transform="translate(162,105)"/>
<path d="M0 0 C0.66 0.99 1.32 1.98 2 3 C0.1627685 7.04190931 -1.57392878 10.12652091 -5 13 C-5.66 13 -6.32 13 -7 13 C-7 13.66 -7 14.32 -7 15 C-8.97290587 17.34869747 -10.00306862 18.00102287 -13 19 C-13 19.66 -13 20.32 -13 21 C-14.98 20.34 -16.96 19.68 -19 19 C-19.680625 19.99 -19.680625 19.99 -20.375 21 C-20.91125 21.66 -21.4475 22.32 -22 23 C-22.66 23 -23.32 23 -24 23 C-22.47017797 18.74693457 -20.31799136 15.00735822 -17.9375 11.1875 C-17.57333984 10.59001953 -17.20917969 9.99253906 -16.83398438 9.37695312 C-15.91993746 7.89859629 -14.96364025 6.44651932 -14 5 C-13.67 5 -13.34 5 -13 5 C-12.63076923 9.55384615 -12.63076923 9.55384615 -14.5 11.8125 C-14.995 12.204375 -15.49 12.59625 -16 13 C-15.01 13.33 -14.02 13.66 -13 14 C-13 13.34 -13 12.68 -13 12 C-10.5 10 -10.5 10 -8 8 C-7.10157556 6.97846783 -6.22641363 5.93603218 -5.375 4.875 C-3 2 -3 2 0 0 Z " fill="#159fbb" transform="translate(55,128)"/>
<path d="M0 0 C0.33 -0.66 0.66 -1.32 1 -2 C6.76575914 -2.07418336 12.53124017 -2.12861797 18.29736328 -2.16479492 C20.25867553 -2.17987695 22.21995408 -2.20034547 24.18115234 -2.22631836 C27.00106118 -2.26272731 29.82052392 -2.27973216 32.640625 -2.29296875 C33.51680481 -2.30845261 34.39298462 -2.32393646 35.29571533 -2.33988953 C36.11626404 -2.34011612 36.93681274 -2.34034271 37.78222656 -2.34057617 C38.50170471 -2.34723801 39.22118286 -2.35389984 39.96246338 -2.36076355 C42.58188763 -1.89697174 43.99917193 -0.70391093 46 1 C38.79177849 1.05063235 31.5836027 1.08570496 24.37524414 1.10986328 C21.92210171 1.11993245 19.46897131 1.13358861 17.01586914 1.15087891 C13.49362217 1.17508679 9.97153361 1.18647388 6.44921875 1.1953125 C4.79910042 1.21079636 4.79910042 1.21079636 3.11564636 1.22659302 C1.58439873 1.22681961 1.58439873 1.22681961 0.0222168 1.22705078 C-0.87713089 1.231492 -1.77647858 1.23593323 -2.70307922 1.24050903 C-5 1 -5 1 -8 -1 C-4.37673261 -2.2077558 -3.35853631 -1.54311128 0 0 Z " fill="#159fbb" transform="translate(155,126)"/>
<path d="M0 0 C0.99 0.33 1.98 0.66 3 1 C3 1.99 3 2.98 3 4 C2.34 4 1.68 4 1 4 C1 4.66 1 5.32 1 6 C0.34 6 -0.32 6 -1 6 C-1.23428313 10.7897321 -1.23428313 10.7897321 1 15 C1.1953125 17.69921875 1.1953125 17.69921875 1.125 20.6875 C1.10695313 21.68136719 1.08890625 22.67523438 1.0703125 23.69921875 C1.03550781 24.83810547 1.03550781 24.83810547 1 26 C-2.48354375 20.77468437 -3.30934332 15.1868663 -3 9 C-5.64186789 10.32093394 -6.08602613 11.77309703 -7.4375 14.375 C-9.00582239 17.39365187 -10.46824921 19.71182873 -13 22 C-13.75 20.25 -13.75 20.25 -14 18 C-12.66666667 16.66666667 -11.33333333 15.33333333 -10 14 C-10 13.195625 -10 12.39125 -10 11.5625 C-10 7.86543853 -8.54126009 6.60813535 -6 4 C-2.9375 1.625 -2.9375 1.625 0 0 Z " fill="#159fbb" transform="translate(94,90)"/>
<path d="M0 0 C0.66 0.33 1.32 0.66 2 1 C0.58036591 6.67853635 -2.39363961 10.53174216 -6 15 C-3.1033852 14.88569952 -0.20821684 14.7589576 2.6875 14.625 C3.50412109 14.5940625 4.32074219 14.563125 5.16210938 14.53125 C11.31124452 14.23457701 11.31124452 14.23457701 17 12 C18.36078035 9.47627099 18.36078035 9.47627099 19 7 C19.99 7.66 20.98 8.32 22 9 C20.83420084 12.22766711 19.52484185 14.64542199 17 17 C12.54199523 18.03258908 8.23368909 17.75433226 3.6875 17.5 C2.46998047 17.46390625 1.25246094 17.4278125 -0.00195312 17.390625 C-3.00450252 17.29642737 -6.00064639 17.16502633 -9 17 C-8.14529966 13.12831168 -6.53080353 10.22907725 -4.5 6.8125 C-3.8709375 5.74644531 -3.241875 4.68039063 -2.59375 3.58203125 C-1 1 -1 1 0 0 Z " fill="#159fbb" transform="translate(15,176)"/>
<path d="M0 0 C1.1484375 1.734375 1.1484375 1.734375 2 4 C1.1015625 6.140625 1.1015625 6.140625 -0.375 8.25 C-0.85710937 8.95640625 -1.33921875 9.6628125 -1.8359375 10.390625 C-2.22007813 10.92171875 -2.60421875 11.4528125 -3 12 C5.35911258 12.8998566 5.35911258 12.8998566 12.6875 9.625 C14.98560175 7.24185729 14.98560175 7.24185729 16 5 C16.66 5 17.32 5 18 5 C18 5.66 18 6.32 18 7 C18.66 7 19.32 7 20 7 C20 7.66 20 8.32 20 9 C19.34 9 18.68 9 18 9 C17.87625 9.639375 17.7525 10.27875 17.625 10.9375 C17.41875 11.618125 17.2125 12.29875 17 13 C14.48322887 14.25838557 12.58706712 14.20818973 9.7734375 14.31640625 C8.7421875 14.35830078 7.7109375 14.40019531 6.6484375 14.44335938 C5.56820312 14.48267578 4.48796875 14.52199219 3.375 14.5625 C2.28703125 14.60568359 1.1990625 14.64886719 0.078125 14.69335938 C-2.6144517 14.7996453 -5.30712253 14.90168057 -8 15 C-7.2056845 13.39781349 -6.40981116 11.79639926 -5.61328125 10.1953125 C-5.17024658 9.30344238 -4.72721191 8.41157227 -4.27075195 7.49267578 C-2.95874692 4.91907898 -1.54569835 2.44057634 0 0 Z " fill="#159fbb" transform="translate(74,150)"/>
<path d="M0 0 C3.56311466 1.78155733 5.35645475 3.16763009 8 6 C5.36 5.34 2.72 4.68 0 4 C0.185625 4.94875 0.37125 5.8975 0.5625 6.875 C1 10 1 10 0 12 C-9.57 12 -19.14 12 -29 12 C-29 11.67 -29 11.34 -29 11 C-31.64 10.67 -34.28 10.34 -37 10 C-37 9.67 -37 9.34 -37 9 C-25.12 9 -13.24 9 -1 9 C-0.67 6.03 -0.34 3.06 0 0 Z " fill="#159fbb" transform="translate(226,55)"/>
<path d="M0 0 C3 3 3 3 5 15 C-3.58 15 -12.16 15 -21 15 C-21 14.67 -21 14.34 -21 14 C-20.42967041 13.97494385 -19.85934082 13.9498877 -19.27172852 13.92407227 C-16.70173843 13.80843451 -14.13214473 13.68556376 -11.5625 13.5625 C-10.66466797 13.52318359 -9.76683594 13.48386719 -8.84179688 13.44335938 C-7.56079102 13.38051758 -7.56079102 13.38051758 -6.25390625 13.31640625 C-5.46314697 13.27974854 -4.6723877 13.24309082 -3.85766602 13.20532227 C-1.98598559 13.19436743 -1.98598559 13.19436743 -1 12 C-2.32 11.67 -3.64 11.34 -5 11 C-3.35 10.34 -1.7 9.68 0 9 C0 6.03 0 3.06 0 0 Z " fill="#159fbb" transform="translate(120,119)"/>
<path d="M0 0 C17.82 0 35.64 0 54 0 C54.66 2.31 55.32 4.62 56 7 C56.66 7 57.32 7 58 7 C58 7.66 58 8.32 58 9 C56.35 9.33 54.7 9.66 53 10 C53 7.36 53 4.72 53 2 C35.51 1.67 18.02 1.34 0 1 C0 0.67 0 0.34 0 0 Z " fill="#159fbb" transform="translate(166,86)"/>
<path d="M0 0 C1.12109375 1.77734375 1.12109375 1.77734375 2 4 C1.34765625 5.75390625 1.34765625 5.75390625 0.0625 7.5625 C-1.61534487 9.99216607 -3.237422 12.39570334 -4.7578125 14.9296875 C-5.65113281 16.41855469 -5.65113281 16.41855469 -6.5625 17.9375 C-7.12066406 18.87464844 -7.67882813 19.81179687 -8.25390625 20.77734375 C-10 23 -10 23 -12.21484375 23.81640625 C-12.80394531 23.87699219 -13.39304688 23.93757813 -14 24 C-13.34 22.35 -12.68 20.7 -12 19 C-11.34 19 -10.68 19 -10 19 C-9.87761963 18.41573242 -9.75523926 17.83146484 -9.62915039 17.22949219 C-8.99032642 14.96572015 -8.15756939 13.32785985 -6.93359375 11.328125 C-6.3293457 10.33232422 -6.3293457 10.33232422 -5.71289062 9.31640625 C-5.29201172 8.63449219 -4.87113281 7.95257813 -4.4375 7.25 C-3.80038086 6.20392578 -3.80038086 6.20392578 -3.15039062 5.13671875 C-2.10489914 3.42164283 -1.05306649 1.71043527 0 0 Z " fill="#159fbb" transform="translate(70,86)"/>
<path d="M0 0 C2.625 0.375 2.625 0.375 5 1 C-1.44859685 5.29906457 -7.36730115 5.27295578 -14.8671875 5.1953125 C-15.90191193 5.1924826 -16.93663635 5.18965271 -18.00271606 5.18673706 C-21.29359714 5.17558048 -24.58420178 5.15048397 -27.875 5.125 C-30.11197522 5.11496437 -32.34895473 5.10583953 -34.5859375 5.09765625 C-40.0573853 5.07565595 -45.52867289 5.04222338 -51 5 C-51 4.67 -51 4.34 -51 4 C-36.48 4 -21.96 4 -7 4 C-7 3.34 -7 2.68 -7 2 C-6.21625 2.04125 -5.4325 2.0825 -4.625 2.125 C-1.83883881 2.28728734 -1.83883881 2.28728734 0 0 Z " fill="#159fbb" transform="translate(205,160)"/>
<path d="M0 0 C1.17539996 0.92652701 2.34010577 1.86663387 3.5 2.8125 C4.1496875 3.33457031 4.799375 3.85664062 5.46875 4.39453125 C7 6 7 6 7 9 C4.86175784 10.70060743 2.77910139 12.20205658 0.5 13.6875 C-0.12003906 14.10322266 -0.74007812 14.51894531 -1.37890625 14.94726562 C-2.91315943 15.97403506 -4.45581929 16.98822225 -6 18 C-6.99 17.34 -7.98 16.68 -9 16 C-7.3790787 14.82767315 -5.75313167 13.6622923 -4.125 12.5 C-3.22007812 11.8503125 -2.31515625 11.200625 -1.3828125 10.53125 C1 9 1 9 3 9 C1.88145414 5.27385847 1.88145414 5.27385847 -1 3 C-0.67 2.01 -0.34 1.02 0 0 Z " fill="#159fbb" transform="translate(241,68)"/>
<path d="M0 0 C0.88365234 0.00451172 1.76730469 0.00902344 2.67773438 0.01367188 C4.84768559 0.02540134 7.01760172 0.04333505 9.1875 0.0625 C8.8575 1.0525 8.5275 2.0425 8.1875 3.0625 C7.5275 3.0625 6.8675 3.0625 6.1875 3.0625 C6.1875 2.4025 6.1875 1.7425 6.1875 1.0625 C5.60742188 1.206875 5.02734375 1.35125 4.4296875 1.5 C-0.10345813 2.57718312 -4.12666787 3.1796458 -8.8125 3.0625 C-9.1425 3.3925 -9.4725 3.7225 -9.8125 4.0625 C-11.33178038 4.13429964 -12.85417482 4.14642007 -14.375 4.125 C-15.20128906 4.11597656 -16.02757812 4.10695313 -16.87890625 4.09765625 C-17.51699219 4.08605469 -18.15507812 4.07445313 -18.8125 4.0625 C-19.1425 4.7225 -19.4725 5.3825 -19.8125 6.0625 C-20.4725 5.4025 -21.1325 4.7425 -21.8125 4.0625 C-14.29504591 0.67227561 -8.22078343 -0.0796944 0 0 Z " fill="#159fbb" transform="translate(173.8125,63.9375)"/>
<path d="M0 0 C0.99 0.33 1.98 0.66 3 1 C2.65930765 4.15140423 2.41923159 5.60781561 0.0625 7.8125 C-2 9 -2 9 -4 9 C-4 9.66 -4 10.32 -4 11 C-5.98 11.66 -7.96 12.32 -10 13 C-10 11.68 -10 10.36 -10 9 C-9.34 9 -8.68 9 -8 9 C-8 8.34 -8 7.68 -8 7 C-6.35546875 5.23828125 -6.35546875 5.23828125 -4.1875 3.3125 C-3.47980469 2.66925781 -2.77210938 2.02601562 -2.04296875 1.36328125 C-1.03169922 0.68845703 -1.03169922 0.68845703 0 0 Z " fill="#159fbb" transform="translate(170,76)"/>
<path d="M0 0 C7.92 0 15.84 0 24 0 C24.33 1.98 24.66 3.96 25 6 C24.01 5.67 23.02 5.34 22 5 C22 4.34 22 3.68 22 3 C15.07 3 8.14 3 1 3 C0.67 2.01 0.34 1.02 0 0 Z " fill="#159fbb" transform="translate(84,64)"/>
<path d="M0 0 C0.66 0 1.32 0 2 0 C2 0.66 2 1.32 2 2 C2.66 2.33 3.32 2.66 4 3 C3.34 3 2.68 3 2 3 C1.34 4.32 0.68 5.64 0 7 C-0.99 7 -1.98 7 -3 7 C-3.28875 7.969375 -3.5775 8.93875 -3.875 9.9375 C-5 13 -5 13 -7 14 C-7.99 12.68 -8.98 11.36 -10 10 C-8.37660195 8.29115995 -6.70680947 6.62553283 -5 5 C-4.34 5 -3.68 5 -3 5 C-2.67 4.01 -2.34 3.02 -2 2 C-1.34 2 -0.68 2 0 2 C0 1.34 0 0.68 0 0 Z " fill="#159fbb" transform="translate(104,79)"/>
<path d="M0 0 C2 3.75 2 3.75 2 6 C-6.91 6 -15.82 6 -25 6 C-25.33 4.35 -25.66 2.7 -26 1 C-25.01 1.33 -24.02 1.66 -23 2 C-23 2.99 -23 3.98 -23 5 C-22.01 5 -21.02 5 -20 5 C-19.67 4.01 -19.34 3.02 -19 2 C-17.35 2.33 -15.7 2.66 -14 3 C-14 3.33 -14 3.66 -14 4 C-9.71 4.33 -5.42 4.66 -1 5 C-0.67 3.35 -0.34 1.7 0 0 Z " fill="#159fbb" transform="translate(138,187)"/>
<path d="M0 0 C2.29744625 3.44616937 3.18762322 6.79380883 4.1875 10.75 C4.47270508 11.78640625 4.47270508 11.78640625 4.76367188 12.84375 C5.97872008 17.61427137 5.99163029 21.17448699 5 26 C4.34 25.34 3.68 24.68 3 24 C3.375 22 3.375 22 4 20 C4 19.34 4 18.68 4 18 C3.34 18 2.68 18 2 18 C0.69607152 13.84372796 -0.12425286 10.34885013 0 6 C-0.33 5.34 -0.66 4.68 -1 4 C-0.5625 1.875 -0.5625 1.875 0 0 Z " fill="#159fbb" transform="translate(109,71)"/>
<path d="M0 0 C0.33 0 0.66 0 1 0 C1.36923077 4.55384615 1.36923077 4.55384615 -0.5 6.8125 C-0.995 7.204375 -1.49 7.59625 -2 8 C-1.34 8.66 -0.68 9.32 0 10 C-1.49739583 11.20442708 -2.99479167 12.40885417 -4.4921875 13.61328125 C-6.25292107 15.12270545 -6.25292107 15.12270545 -8 18 C-8.66 18 -9.32 18 -10 18 C-8.47017797 13.74693457 -6.31799136 10.00735822 -3.9375 6.1875 C-3.57333984 5.59001953 -3.20917969 4.99253906 -2.83398438 4.37695312 C-1.91993746 2.89859629 -0.96364025 1.44651932 0 0 Z " fill="#159fbb" transform="translate(41,133)"/>
<path d="M0 0 C0.99 0.66 1.98 1.32 3 2 C1.66469366 5.00611679 0.28928569 7.61663407 -2 10 C-5.10352525 10.70581845 -7.87228538 10.4906219 -11 10 C-9.68 9.67 -8.36 9.34 -7 9 C-7 8.34 -7 7.68 -7 7 C-5.824375 6.6596875 -5.824375 6.6596875 -4.625 6.3125 C-1.78125 5.21875 -1.78125 5.21875 -0.6875 2.375 C-0.460625 1.59125 -0.23375 0.8075 0 0 Z " fill="#159fbb" transform="translate(34,183)"/>
<path d="M0 0 C0.99 0.33 1.98 0.66 3 1 C0.69 4.96 -1.62 8.92 -4 13 C-4.99 12.67 -5.98 12.34 -7 12 C-5.63855967 6.80177328 -3.53269829 3.90456127 0 0 Z " fill="#159fbb" transform="translate(61,140)"/>
<path d="M0 0 C0.66 1.32 1.32 2.64 2 4 C1.566875 4.62648437 1.13375 5.25296875 0.6875 5.8984375 C0.130625 6.71570313 -0.42625 7.53296875 -1 8.375 C-1.556875 9.18710938 -2.11375 9.99921875 -2.6875 10.8359375 C-4.17285844 12.86318187 -4.17285844 12.86318187 -4 15 C-5.32 14.67 -6.64 14.34 -8 14 C-5.36 9.38 -2.72 4.76 0 0 Z " fill="#159fbb" transform="translate(74,150)"/>
<path d="M0 0 C1.34907546 4.04722637 0.18314004 5.36560234 -1.6875 9.125 C-2.20699219 10.20007813 -2.72648437 11.27515625 -3.26171875 12.3828125 C-5 15 -5 15 -7.20703125 15.8671875 C-8.09455078 15.93292969 -8.09455078 15.93292969 -9 16 C-7.56691865 12.04093183 -5.66858051 8.71281819 -3.375 5.1875 C-2.74335937 4.21167969 -2.11171875 3.23585938 -1.4609375 2.23046875 C-0.73777344 1.12638672 -0.73777344 1.12638672 0 0 Z " fill="#159fbb" transform="translate(80,70)"/>
<path d="M0 0 C0.66 0.99 1.32 1.98 2 3 C0 6 -2 9 -4 12 C-4.99 11.67 -5.98 11.34 -7 11 C-4.69 7.37 -2.38 3.74 0 0 Z " fill="#159fbb" transform="translate(50,119)"/>
<path d="M0 0 C0.66 0.33 1.32 0.66 2 1 C1.690625 1.680625 1.38125 2.36125 1.0625 3.0625 C-0.13491647 6.37300435 -0.54839156 9.51616346 -1 13 C-1.33 13.99 -1.66 14.98 -2 16 C-2.66 16 -3.32 16 -4 16 C-4.05410687 14.22950311 -4.09284119 12.45853151 -4.125 10.6875 C-4.14820313 9.70136719 -4.17140625 8.71523437 -4.1953125 7.69921875 C-4 5 -4 5 -2 2 C-1.34 2 -0.68 2 0 2 C0 1.34 0 0.68 0 0 Z " fill="#159fbb" transform="translate(157,87)"/>
<path d="M0 0 C0.99 0 1.98 0 3 0 C1.43358249 4.30764815 -0.68336156 8.06171464 -3 12 C-3.66 11.01 -4.32 10.02 -5 9 C-4.01416301 5.50475975 -2.46910769 2.66663631 0 0 Z " fill="#159fbb" transform="translate(68,128)"/>
<path d="M0 0 C1.32 0 2.64 0 4 0 C3.36934243 3.21852831 2.21979305 5.50801069 0.4375 8.25 C-0.01753906 8.95640625 -0.47257812 9.6628125 -0.94140625 10.390625 C-1.29074219 10.92171875 -1.64007813 11.4528125 -2 12 C-2.66 10.68 -3.32 9.36 -4 8 C-3.34 7.4225 -2.68 6.845 -2 6.25 C0.44290923 4.00346023 0.44290923 4.00346023 0 0 Z " fill="#159fbb" transform="translate(84,100)"/>
<path d="M0 0 C6.27 0 12.54 0 19 0 C18.67 0.99 18.34 1.98 18 3 C17.34 3 16.68 3 16 3 C16 2.34 16 1.68 16 1 C15.18015625 1.17917969 14.3603125 1.35835938 13.515625 1.54296875 C12.43796875 1.75566406 11.3603125 1.96835938 10.25 2.1875 C9.18265625 2.40792969 8.1153125 2.62835938 7.015625 2.85546875 C4 3 4 3 0 0 Z " fill="#159fbb" transform="translate(164,64)"/>
<path d="M0 0 C-1.49835228 4.66154042 -4.88463591 5.86610751 -9 8 C-9.66 7.34 -10.32 6.68 -11 6 C-9.73608512 4.99126984 -8.46359117 3.99328178 -7.1875 3 C-6.47980469 2.443125 -5.77210938 1.88625 -5.04296875 1.3125 C-3 0 -3 0 0 0 Z " fill="#159fbb" transform="translate(243,78)"/>
<path d="M0 0 C0.33 0 0.66 0 1 0 C1.19392201 5.52677733 0.7479503 9.75614911 -1 15 C-2.71056541 12.41569255 -3.05220752 11.31678461 -2.5390625 8.203125 C-2.23742187 7.22859375 -1.93578125 6.2540625 -1.625 5.25 C-1.32851562 4.26515625 -1.03203125 3.2803125 -0.7265625 2.265625 C-0.48679688 1.51796875 -0.24703125 0.7703125 0 0 Z " fill="#159fbb" transform="translate(229,125)"/>
<path d="M0 0 C3.0916909 2.52956528 3.90931332 5.22454612 5 9 C4.34 9.66 3.68 10.32 3 11 C-1.06153846 5.70769231 -1.06153846 5.70769231 -0.75 2.125 C-0.5025 1.42375 -0.255 0.7225 0 0 Z " fill="#159fbb" transform="translate(134,108)"/>
<path d="M0 0 C0.99 0.33 1.98 0.66 3 1 C3.77112541 5.72314313 4.09764874 10.21521178 4 15 C2.25674553 12.3851183 1.58412043 10.9946567 0.875 8.0625 C0.70742187 7.39347656 0.53984375 6.72445312 0.3671875 6.03515625 C0 4 0 4 0 0 Z " fill="#159fbb" transform="translate(91,101)"/>
<path d="M0 0 C0.66 1.32 1.32 2.64 2 4 C0.1875 7 0.1875 7 -2 10 C-2.99 10 -3.98 10 -5 10 C-3.66511872 6.40608886 -2.03977277 3.24509304 0 0 Z " fill="#159fbb" transform="translate(70,86)"/>
<path d="M0 0 C0.99 0.33 1.98 0.66 3 1 C2.02433888 2.16959987 1.044375 3.33561177 0.0625 4.5 C-0.48277344 5.1496875 -1.02804688 5.799375 -1.58984375 6.46875 C-2.05519531 6.9740625 -2.52054688 7.479375 -3 8 C-3.33 8 -3.66 8 -4 8 C-4.25 5.6875 -4.25 5.6875 -4 3 C-2.1875 1.125 -2.1875 1.125 0 0 Z " fill="#159fbb" transform="translate(220,149)"/>
<path d="M0 0 C0.66 0 1.32 0 2 0 C1.625 2.4375 1.625 2.4375 1 5 C0.01 5.495 0.01 5.495 -1 6 C-1 7.32 -1 8.64 -1 10 C-2.32 10.33 -3.64 10.66 -5 11 C-3.78065514 6.96678237 -2.44045073 3.45730521 0 0 Z " fill="#159fbb" transform="translate(139,78)"/>
<path d="M0 0 C3.36591866 1.44253657 5.51047079 3.33264727 8 6 C5.36 5.34 2.72 4.68 0 4 C-0.33 4.99 -0.66 5.98 -1 7 C-0.67 4.69 -0.34 2.38 0 0 Z " fill="#159fbb" transform="translate(226,55)"/>
<path d="M0 0 C2.00293347 3.00440021 2.49271626 4.70993945 3.125 8.1875 C3.29257813 9.08855469 3.46015625 9.98960938 3.6328125 10.91796875 C3.75398438 11.60503906 3.87515625 12.29210937 4 13 C3.34 12.67 2.68 12.34 2 12 C2 11.01 2 10.02 2 9 C1.34 9 0.68 9 0 9 C-0.84454356 5.62182575 -1.10844919 3.32534757 0 0 Z " fill="#159fbb" transform="translate(115,95)"/>
<path d="M0 0 C1.32 0.33 2.64 0.66 4 1 C2.35 3.64 0.7 6.28 -1 9 C-1.66 8.01 -2.32 7.02 -3 6 C-2.01 4.02 -1.02 2.04 0 0 Z " fill="#159fbb" transform="translate(45,165)"/>
<path d="M0 0 C0.66 0.66 1.32 1.32 2 2 C1.9765625 4.3828125 1.9765625 4.3828125 1.625 7.125 C1.51414063 8.03507812 1.40328125 8.94515625 1.2890625 9.8828125 C1.19367188 10.58148438 1.09828125 11.28015625 1 12 C0.67 12 0.34 12 0 12 C-0.19401633 10.18818595 -0.38004375 8.37551468 -0.5625 6.5625 C-0.66691406 5.55316406 -0.77132812 4.54382813 -0.87890625 3.50390625 C-0.91886719 2.67761719 -0.95882812 1.85132812 -1 1 C-0.67 0.67 -0.34 0.34 0 0 Z " fill="#159fbb" transform="translate(227,119)"/>
<path d="M0 0 C0.66 0 1.32 0 2 0 C2.33 1.98 2.66 3.96 3 6 C3.66 6 4.32 6 5 6 C5 6.66 5 7.32 5 8 C3.35 8.33 1.7 8.66 0 9 C0 6.03 0 3.06 0 0 Z " fill="#159fbb" transform="translate(219,87)"/>
<path d="M0 0 C0.33 0 0.66 0 1 0 C1.1875 2.3125 1.1875 2.3125 1 5 C-0.4375 6.6875 -0.4375 6.6875 -2 8 C-2.33 8.66 -2.66 9.32 -3 10 C-3.66 10 -4.32 10 -5 10 C-3.66654496 6.40992874 -2.1056769 3.20429093 0 0 Z " fill="#159fbb" transform="translate(41,133)"/>
<path d="M0 0 C-1.29299694 2.88437779 -2.65941363 4.87219421 -5 7 C-5.33 5.68 -5.66 4.36 -6 3 C-5.34 3 -4.68 3 -4 3 C-4 2.34 -4 1.68 -4 1 C-2 0 -2 0 0 0 Z " fill="#159fbb" transform="translate(166,82)"/>
<path d="M0 0 C2 3.75 2 3.75 2 6 C-0.97 6 -3.94 6 -7 6 C-7 5.67 -7 5.34 -7 5 C-5.02 5 -3.04 5 -1 5 C-0.67 3.35 -0.34 1.7 0 0 Z " fill="#159fbb" transform="translate(138,187)"/>
<path d="M0 0 C0.66 0.33 1.32 0.66 2 1 C0.625 3.5 0.625 3.5 -1 6 C-1.66 6 -2.32 6 -3 6 C-3.33 5.01 -3.66 4.02 -4 3 C-2.68 2.01 -1.36 1.02 0 0 Z " fill="#159fbb" transform="translate(41,174)"/>
<path d="M0 0 C-0.66 1.98 -1.32 3.96 -2 6 C-2.99 5.67 -3.98 5.34 -5 5 C-5 4.01 -5 3.02 -5 2 C-2 0 -2 0 0 0 Z " fill="#159fbb" transform="translate(164,147)"/>
</svg>